<?xml version="1.0" encoding="UTF-8" standalone="no"?>
<!DOCTYPE svg PUBLIC "-//W3C//DTD SVG 1.1//EN" "http://www.w3.org/Graphics/SVG/1.1/DTD/svg11.dtd">
<svg width="100%" height="100%" viewBox="0 0 228 33" version="1.1" xmlns="http://www.w3.org/2000/svg" xmlns:xlink="http://www.w3.org/1999/xlink" xml:space="preserve" xmlns:serif="http://www.serif.com/" style="fill-rule:evenodd;clip-rule:evenodd;stroke-linejoin:round;stroke-miterlimit:1.41421;">
    <g transform="matrix(1,0,0,1,-51.9962,-48.178)">
        <g transform="matrix(1,0,0,1,0,-662)">
            <clipPath id="_clip1">
                <path d="M185.529,716.387L199.778,716L198.989,718.4L199.167,722.289L200,725.566L199.778,730.241L198.195,731.809L197.919,733.856L197.656,738.087L177.85,743L177,742.394L177.651,735.835L180.705,734.88L182.129,734.812L182.372,733.958L182.094,727.51L178.658,726.622L178.693,719.629L185.529,716.387Z"/>
            </clipPath>
            <g clip-path="url(#_clip1)">
                <rect x="172" y="711" width="33" height="37" style="fill:rgb(239,135,121);"/>
            </g>
        </g>
        <g transform="matrix(1,0,0,1,0,-662)">
            <clipPath id="_clip2">
                <path d="M185.529,716.387L199.778,716L198.989,718.4L199.167,722.289L200,725.566L199.778,730.241L198.195,731.809L197.919,733.856L197.656,738.087L177.85,743L177,742.394L177.651,735.835L180.705,734.88L182.129,734.812L182.372,733.958L182.094,727.51L178.658,726.622L178.693,719.629L185.529,716.387Z"/>
            </clipPath>
            <g clip-path="url(#_clip2)">
                <rect x="172" y="711" width="33" height="37" style="fill:rgb(239,135,121);"/>
            </g>
        </g>
        <g transform="matrix(1,0,0,1,0,-666.201)">
            <clipPath id="_clip3">
                <path d="M56.974,742.655C56.68,742.359 56.533,741.797 56.533,740.97C56.533,740.413 56.592,739.698 56.712,738.827C56.832,737.955 57.03,736.755 57.306,735.228C57.785,732.406 58.163,729.96 58.439,727.893C58.605,726.599 58.689,725.521 58.689,724.659C58.689,723.849 58.384,723.444 57.776,723.444C57.297,723.444 56.721,723.683 56.049,724.159C55.377,724.635 54.635,725.395 53.824,726.437C53.566,726.779 53.281,726.949 52.967,726.949C52.71,726.949 52.483,726.828 52.29,726.585C52.097,726.343 52,726.07 52,725.764C52,725.477 52.059,725.183 52.18,724.887C52.299,724.59 52.497,724.253 52.774,723.876C53.658,722.673 54.643,721.741 55.731,721.085C56.818,720.43 57.906,720.101 58.993,720.101C60.005,720.101 60.784,720.417 61.328,721.044C61.871,721.675 62.143,722.591 62.143,723.795C62.143,724.279 62.096,724.852 62.004,725.507C61.912,726.163 61.829,726.699 61.756,727.111C61.682,727.525 61.626,727.812 61.59,727.974C62.64,725.044 63.82,722.999 65.127,721.84C66.436,720.681 67.873,720.101 69.44,720.101C70.637,720.101 71.581,720.515 72.273,721.341C72.964,722.169 73.308,723.336 73.308,724.846C73.308,725.44 73.226,726.178 73.06,727.057C73.981,724.577 75.059,722.797 76.294,721.72C77.527,720.64 78.947,720.101 80.55,720.101C81.839,720.101 82.83,720.505 83.52,721.314C84.212,722.124 84.557,723.256 84.557,724.711C84.557,725.503 84.437,726.465 84.198,727.596L82.512,735.307C82.327,736.207 82.236,736.98 82.236,737.627C82.236,738.381 82.416,738.947 82.775,739.326C83.134,739.703 83.636,739.891 84.281,739.891C84.888,739.891 85.484,739.693 86.063,739.299C86.643,738.903 87.33,738.246 88.122,737.331C88.343,737.079 88.593,736.953 88.869,736.953C89.109,736.953 89.297,737.061 89.435,737.277C89.574,737.491 89.642,737.788 89.642,738.166C89.642,738.868 89.468,739.425 89.117,739.837C88.159,740.97 87.211,741.797 86.271,742.318C85.331,742.84 84.345,743.1 83.314,743.1C81.747,743.1 80.521,742.645 79.637,741.738C78.754,740.831 78.311,739.613 78.311,738.084C78.311,737.025 78.532,735.487 78.974,733.475L80.08,728.539C80.116,728.379 80.181,728.091 80.273,727.678C80.365,727.265 80.439,726.874 80.494,726.504C80.55,726.136 80.577,725.773 80.577,725.413C80.577,724.783 80.453,724.312 80.204,723.997C79.956,723.683 79.601,723.526 79.14,723.526C78.274,723.526 77.368,724.069 76.418,725.157C75.468,726.244 74.566,728.046 73.709,730.563C72.852,733.08 72.157,736.35 71.623,740.377C71.494,741.455 71.268,742.18 70.945,742.547C70.623,742.917 70.103,743.1 69.383,743.1C68.757,743.1 68.301,742.956 68.017,742.669C67.73,742.38 67.587,741.841 67.587,741.051C67.587,740.314 67.688,739.348 67.891,738.153C68.094,736.957 68.352,735.55 68.665,733.932C69.512,729.582 69.937,726.779 69.937,725.521C69.937,724.837 69.803,724.333 69.536,724.011C69.269,723.687 68.868,723.526 68.334,723.526C67.431,723.526 66.5,724.025 65.542,725.022C64.585,726.019 63.649,727.789 62.737,730.332C61.826,732.877 61.066,736.315 60.457,740.646C60.329,741.563 60.139,742.201 59.891,742.561C59.641,742.921 59.158,743.1 58.439,743.1C57.758,743.1 57.27,742.951 56.974,742.655Z"/>
            </clipPath>
            <g clip-path="url(#_clip3)">
                <rect x="47" y="715.101" width="47.642" height="32.999" style="fill:rgb(239,135,121);"/>
            </g>
        </g>
        <g transform="matrix(1,0,0,1,0,-655.9)">
            <clipPath id="_clip4">
                <path d="M88.192,731.68C87.666,730.935 87.403,730.005 87.403,728.89C87.403,727.542 87.495,726.306 87.68,725.182C87.863,724.059 88.168,722.868 88.593,721.609C88.776,721.07 89.034,720.685 89.366,720.451C89.697,720.217 90.222,720.1 90.941,720.1C91.347,720.1 91.627,720.163 91.783,720.289C91.94,720.414 92.018,720.604 92.018,720.855C92.018,720.999 91.917,721.484 91.714,722.311C91.53,722.976 91.384,723.578 91.273,724.117C90.904,726.006 90.721,727.263 90.721,727.892C90.721,728.269 90.766,728.535 90.858,728.688C90.951,728.84 91.098,728.916 91.3,728.916C91.577,728.916 91.922,728.647 92.337,728.107C92.751,727.568 93.193,726.751 93.663,725.655C94.134,724.557 94.589,723.21 95.032,721.609C95.18,721.07 95.405,720.685 95.708,720.451C96.012,720.217 96.469,720.1 97.076,720.1C97.499,720.1 97.796,720.151 97.961,720.249C98.127,720.348 98.21,720.531 98.21,720.801C98.21,721.251 97.979,722.482 97.519,724.495C97.002,726.796 96.745,728.215 96.745,728.755C96.745,729.097 96.818,729.361 96.966,729.55C97.113,729.739 97.308,729.834 97.546,729.834C97.915,729.834 98.352,729.613 98.86,729.172C99.365,728.732 100.043,728.018 100.891,727.029C101.111,726.777 101.361,726.652 101.636,726.652C101.876,726.652 102.065,726.759 102.203,726.975C102.342,727.191 102.411,727.488 102.411,727.864C102.411,728.584 102.235,729.142 101.886,729.537C101.094,730.49 100.241,731.271 99.329,731.882C98.417,732.494 97.38,732.8 96.22,732.8C95.336,732.8 94.686,732.466 94.27,731.803C93.857,731.137 93.649,730.202 93.649,728.998C93.336,730.22 92.866,731.158 92.24,731.815C91.614,732.471 90.941,732.8 90.222,732.8C89.393,732.8 88.717,732.427 88.192,731.68Z"/>
            </clipPath>
            <g clip-path="url(#_clip4)">
                <rect x="82.403" y="715.1" width="25.008" height="22.7" style="fill:rgb(239,135,121);"/>
            </g>
        </g>
        <g transform="matrix(1,0,0,1,0,-655.902)">
            <clipPath id="_clip5">
                <path d="M100.655,731.722C100.37,731.003 100.227,729.853 100.227,728.271C100.227,725.936 100.568,723.715 101.25,721.611C101.416,721.091 101.686,720.709 102.065,720.466C102.443,720.224 102.973,720.101 103.654,720.101C104.022,720.101 104.281,720.147 104.428,720.237C104.576,720.327 104.65,720.497 104.65,720.748C104.65,721.037 104.511,721.684 104.235,722.691C104.051,723.41 103.903,724.035 103.792,724.564C103.682,725.095 103.589,725.755 103.515,726.547C104.014,725.144 104.608,723.957 105.299,722.987C105.989,722.017 106.699,721.293 107.426,720.817C108.155,720.34 108.84,720.101 109.486,720.101C110.131,720.101 110.587,720.247 110.854,720.533C111.121,720.821 111.254,721.261 111.254,721.855C111.254,722.431 111.079,723.472 110.729,724.982C110.581,725.63 110.48,726.115 110.425,726.439C111.346,724.227 112.369,722.619 113.494,721.611C114.617,720.605 115.667,720.101 116.644,720.101C117.841,720.101 118.44,720.687 118.44,721.855C118.44,722.555 118.237,723.823 117.832,725.656C117.482,727.22 117.307,728.253 117.307,728.757C117.307,729.476 117.574,729.836 118.109,729.836C118.477,729.836 118.915,729.615 119.421,729.175C119.928,728.734 120.606,728.02 121.452,727.031C121.674,726.779 121.923,726.653 122.199,726.653C122.438,726.653 122.627,726.761 122.766,726.977C122.904,727.193 122.973,727.49 122.973,727.867C122.973,728.587 122.797,729.145 122.447,729.539C121.655,730.492 120.804,731.273 119.891,731.884C118.979,732.496 117.943,732.801 116.782,732.801C115.843,732.801 115.133,732.536 114.654,732.005C114.175,731.476 113.935,730.707 113.935,729.7C113.935,729.197 114.063,728.299 114.323,727.004C114.561,725.872 114.682,725.09 114.682,724.658C114.682,724.371 114.58,724.227 114.378,724.227C114.137,724.227 113.798,724.528 113.355,725.131C112.913,725.733 112.47,726.529 112.029,727.516C111.586,728.505 111.227,729.548 110.95,730.645C110.748,731.506 110.513,732.082 110.245,732.37C109.978,732.657 109.55,732.801 108.961,732.801C108.353,732.801 107.897,732.518 107.593,731.951C107.289,731.386 107.137,730.697 107.137,729.89C107.137,729.206 107.229,728.217 107.414,726.923C107.56,725.774 107.634,725.018 107.634,724.658C107.634,724.371 107.533,724.227 107.33,724.227C107.054,724.227 106.704,724.55 106.279,725.198C105.856,725.846 105.445,726.673 105.051,727.678C104.653,728.685 104.336,729.674 104.096,730.645C103.893,731.489 103.658,732.059 103.391,732.356C103.124,732.652 102.705,732.801 102.134,732.801C101.433,732.801 100.941,732.442 100.655,731.722Z"/>
            </clipPath>
            <g clip-path="url(#_clip5)">
                <rect x="95.227" y="715.101" width="32.745" height="22.7" style="fill:rgb(239,135,121);"/>
            </g>
        </g>
        <g transform="matrix(1,0,0,1,0,-668.682)">
            <clipPath id="_clip6">
                <path d="M126.607,724.375C126.174,725.445 125.773,726.896 125.404,728.73C125.036,730.562 124.759,732.567 124.576,734.743C125.791,732.567 126.763,730.649 127.491,728.985C128.218,727.323 128.582,725.845 128.582,724.55C128.582,723.975 128.513,723.535 128.376,723.229C128.237,722.924 128.048,722.771 127.809,722.771C127.44,722.771 127.04,723.306 126.607,724.375ZM127.891,742.022C128.334,741.554 128.629,740.881 128.777,740C128.205,739.622 127.768,739.128 127.463,738.517C127.159,737.905 127.008,737.258 127.008,736.575C127.008,736.325 127.044,735.983 127.119,735.551L127.035,735.551C126.28,735.551 125.649,735.914 125.142,736.643C124.634,737.371 124.382,738.347 124.382,739.568C124.382,740.593 124.58,741.375 124.976,741.914C125.372,742.453 125.837,742.723 126.372,742.723C126.943,742.723 127.45,742.49 127.891,742.022ZM135.99,737.519C136.118,737.753 136.184,738.05 136.184,738.409C136.184,738.858 136.118,739.203 135.99,739.447C135.861,739.691 135.658,739.856 135.381,739.946C134.276,740.323 133.061,740.539 131.734,740.593C131.365,742.086 130.67,743.289 129.648,744.205C128.624,745.123 127.496,745.581 126.261,745.581C124.4,745.581 123.046,744.889 122.198,743.504C121.351,742.121 120.926,740.117 120.926,737.492C120.926,735.174 121.222,732.653 121.812,729.93C122.401,727.206 123.262,724.887 124.396,722.973C125.529,721.058 126.879,720.101 128.445,720.101C129.292,720.101 129.974,720.457 130.49,721.166C131.006,721.877 131.264,722.798 131.264,723.93C131.264,725.403 130.979,726.869 130.406,728.325C129.836,729.781 128.887,731.309 127.56,732.908C128.795,732.999 129.799,733.499 130.573,734.405C131.346,735.313 131.808,736.431 131.955,737.761C132.82,737.708 133.852,737.528 135.05,737.222C135.161,737.187 135.29,737.168 135.438,737.168C135.676,737.168 135.861,737.286 135.99,737.519Z"/>
            </clipPath>
            <g clip-path="url(#_clip6)">
                <rect x="115.926" y="715.101" width="25.258" height="35.481" style="fill:rgb(239,135,121);"/>
            </g>
        </g>
        <g transform="matrix(1,0,0,1,0,-668.681)">
            <clipPath id="_clip7">
                <path d="M139.444,725.008C138.909,726.5 138.441,728.352 138.035,730.562C137.629,732.774 137.408,734.894 137.371,736.926C138.679,734.823 139.721,732.715 140.494,730.603C141.267,728.491 141.655,726.564 141.655,724.82C141.655,723.453 141.397,722.77 140.881,722.77C140.457,722.77 139.978,723.517 139.444,725.008ZM144.847,739.756C144.986,739.972 145.055,740.269 145.055,740.646C145.055,741.366 144.879,741.924 144.53,742.318C143.737,743.271 142.876,744.052 141.945,744.663C141.014,745.275 139.96,745.581 138.78,745.581C137.159,745.581 135.957,744.861 135.174,743.424C134.391,741.985 133.999,740.126 133.999,737.842C133.999,735.649 134.291,733.15 134.87,730.346C135.451,727.543 136.307,725.133 137.441,723.121C138.574,721.108 139.923,720.1 141.489,720.1C142.373,720.1 143.068,720.501 143.576,721.3C144.083,722.101 144.337,723.247 144.337,724.738C144.337,726.878 143.728,729.358 142.512,732.181C141.296,735.002 139.647,737.797 137.565,740.565C137.694,741.302 137.906,741.829 138.201,742.142C138.495,742.458 138.881,742.615 139.361,742.615C140.116,742.615 140.779,742.404 141.351,741.981C141.923,741.559 142.65,740.834 143.534,739.81C143.756,739.558 144.004,739.434 144.281,739.434C144.52,739.434 144.709,739.54 144.847,739.756Z"/>
            </clipPath>
            <g clip-path="url(#_clip7)">
                <rect x="128.999" y="715.1" width="21.056" height="35.481" style="fill:rgb(239,135,121);"/>
            </g>
        </g>
        <g transform="matrix(1,0,0,1,0,-655.901)">
            <clipPath id="_clip8">
                <path d="M146.45,723.903C145.98,724.677 145.745,725.611 145.745,726.707L145.745,726.761C146.833,726.509 147.689,726.131 148.316,725.628C148.942,725.125 149.255,724.541 149.255,723.876C149.255,723.534 149.159,723.261 148.966,723.053C148.771,722.847 148.509,722.743 148.177,722.743C147.496,722.743 146.92,723.13 146.45,723.903ZM153.277,727.785C153.415,728.001 153.484,728.298 153.484,728.675C153.484,729.323 153.327,729.879 153.014,730.347C152.498,731.121 151.821,731.722 150.983,732.153C150.144,732.585 149.145,732.801 147.984,732.801C146.215,732.801 144.842,732.283 143.866,731.25C142.889,730.217 142.401,728.819 142.401,727.057C142.401,725.818 142.668,724.662 143.203,723.592C143.737,722.524 144.478,721.675 145.427,721.044C146.376,720.415 147.449,720.101 148.647,720.101C149.716,720.101 150.573,720.412 151.218,721.031C151.862,721.651 152.185,722.491 152.185,723.552C152.185,724.792 151.729,725.857 150.817,726.748C149.905,727.637 148.352,728.343 146.16,728.865C146.603,729.69 147.348,730.104 148.399,730.104C149.154,730.104 149.776,729.933 150.264,729.592C150.753,729.251 151.319,728.675 151.963,727.866C152.185,727.596 152.433,727.462 152.71,727.462C152.95,727.462 153.138,727.57 153.277,727.785Z"/>
            </clipPath>
            <g clip-path="url(#_clip8)">
                <rect x="137.401" y="715.101" width="21.083" height="22.7" style="fill:rgb(239,135,121);"/>
            </g>
        </g>
        <g transform="matrix(1,0,0,1,0,-667.844)">
            <clipPath id="_clip9">
                <path d="M198.113,734.625C198.078,734.625 198.043,734.63 198.011,734.641L196.575,735.032L182.913,738.769L182.746,733.71L187.228,732.284L198.083,728.83C198.085,728.83 198.654,728.707 199.072,729.122C199.476,729.525 199.677,730.318 199.653,731.416C199.583,734.493 198.164,734.62 198.113,734.625ZM197.065,741.452C197.088,741.679 197.115,741.885 197.14,742.042L178.114,746.659L178.281,741.636L182.349,740.82L182.95,740.961L185.201,740.248L195.579,738.166L197.569,737.767C196.933,738.902 196.959,740.455 197.065,741.452ZM177.28,746.652L162.183,742.522C162.154,742.514 162.116,742.509 162.088,742.508C162.028,742.503 160.609,742.377 160.54,739.3C160.516,738.201 160.718,737.408 161.122,737.004C161.381,736.747 161.686,736.693 161.894,736.693C162.004,736.693 162.083,736.707 162.089,736.707L177.446,741.594L177.28,746.652ZM161.852,723.534C161.827,722.436 162.028,721.642 162.434,721.238C162.691,720.981 162.996,720.927 163.204,720.927C163.314,720.927 163.393,720.943 163.399,720.943L173.646,724.201L178.758,725.827L178.59,730.886L164.249,726.963L163.491,726.756C163.464,726.75 163.426,726.744 163.397,726.742C163.338,726.739 161.921,726.61 161.852,723.534ZM162.623,729.885L164.612,730.285L177.432,732.854L178.552,733.078L181.91,733.752L182.076,738.776L164.76,734.574L163.052,734.158C163.078,734.002 163.104,733.797 163.129,733.57C163.233,732.573 163.26,731.019 162.623,729.885ZM179.592,725.869L183.541,725.077L196.89,722.4L198.879,722.001C198.243,723.136 198.27,724.689 198.375,725.688C198.398,725.913 198.425,726.118 198.45,726.276L196.274,726.804L179.426,730.893L179.592,725.869ZM199.239,725.922C199.064,724.644 199.039,722.44 200.258,721.7C200.279,721.687 200.295,721.666 200.315,721.65C201.31,721.34 202,720.903 201.459,720.316L186.772,716L162.991,719.226C162.991,719.226 160.267,719.605 160.511,723.733C160.643,725.979 161.365,727.082 161.997,727.624L160.045,728.199C159.503,728.786 160.192,729.222 161.188,729.531C161.207,729.549 161.223,729.568 161.245,729.582C162.462,730.322 162.439,732.525 162.263,733.804C157.891,735.015 159.461,735.41 159.461,735.41L160.42,735.637C159.746,736.232 159.075,737.359 159.201,739.498C159.444,743.624 161.681,743.908 161.681,743.908L177.243,748.844L200.733,743.294C200.733,743.294 202.302,742.899 197.93,741.687C197.754,740.409 197.729,738.207 198.949,737.464C198.971,737.451 198.987,737.432 199.006,737.415C200.002,737.104 200.69,736.669 200.148,736.082L199.128,735.782C199.809,735.381 200.831,734.335 200.991,731.614C201.103,729.745 200.602,728.649 200.023,728.004L202.042,727.527C202.042,727.528 203.611,727.134 199.239,725.922Z"/>
            </clipPath>
            <g clip-path="url(#_clip9)">
                <rect x="154.186" y="711" width="53.13" height="42.844" style="fill:rgb(61,71,97);"/>
            </g>
        </g>
        <g transform="matrix(1,0,0,1,0,-666.694)">
            <clipPath id="_clip10">
                <path d="M182.746,732.56L187.228,731.134Z"/>
            </clipPath>
            <g clip-path="url(#_clip10)">
                <rect x="177.746" y="726.134" width="14.482" height="11.426" style="fill:rgb(42,109,148);"/>
            </g>
        </g>
        <g transform="matrix(1,0,0,1,0,-658.887)">
            <clipPath id="_clip11">
                <path d="M196.576,726.075L182.913,729.812Z"/>
            </clipPath>
            <g clip-path="url(#_clip11)">
                <rect x="177.913" y="721.075" width="23.662" height="13.737" style="fill:rgb(42,109,148);"/>
            </g>
        </g>
        <g transform="matrix(1,0,0,1,0,-663.033)">
            <clipPath id="_clip12">
                <path d="M209.262,737.634L213.279,737.634C213.864,737.634 214.443,737.574 215.02,737.455C215.594,737.335 216.112,737.142 216.575,736.874C217.037,736.609 217.41,736.259 217.693,735.826C217.976,735.395 218.117,734.864 218.117,734.239C218.117,733.559 217.979,732.988 217.706,732.528C217.433,732.069 217.075,731.7 216.631,731.424C216.188,731.148 215.679,730.955 215.103,730.844C214.529,730.734 213.94,730.679 213.336,730.679L209.262,730.679L209.262,737.634ZM209.262,728.526L212.544,728.526C213.11,728.526 213.662,728.49 214.199,728.416C214.737,728.342 215.222,728.19 215.656,727.96C216.089,727.731 216.438,727.409 216.703,726.995C216.967,726.58 217.099,726.032 217.099,725.352C217.099,724.745 216.976,724.253 216.731,723.875C216.486,723.499 216.16,723.199 215.754,722.978C215.349,722.758 214.887,722.607 214.368,722.522C213.849,722.441 213.326,722.399 212.798,722.399L209.262,722.399L209.262,728.526ZM206.885,720.246L212.996,720.246C213.826,720.246 214.637,720.329 215.43,720.494C216.222,720.659 216.929,720.931 217.551,721.309C218.174,721.686 218.678,722.178 219.064,722.785C219.452,723.392 219.645,724.147 219.645,725.048C219.645,726.19 219.329,727.132 218.696,727.877C218.065,728.622 217.212,729.152 216.137,729.464L216.137,729.52C216.778,729.575 217.377,729.736 217.933,730.003C218.489,730.27 218.971,730.614 219.377,731.038C219.781,731.46 220.098,731.953 220.324,732.514C220.55,733.075 220.663,733.678 220.663,734.322C220.663,735.408 220.432,736.301 219.971,736.999C219.508,737.699 218.904,738.256 218.159,738.669C217.413,739.083 216.575,739.373 215.642,739.538C214.707,739.704 213.779,739.787 212.855,739.787L206.885,739.787L206.885,720.246Z"/>
            </clipPath>
            <g clip-path="url(#_clip12)">
                <rect x="201.885" y="715.246" width="23.778" height="29.541" style="fill:rgb(61,71,97);"/>
            </g>
        </g>
        <g transform="matrix(1,0,0,1,0,-656.409)">
            <clipPath id="_clip13">
                <path d="M225.614,726.704C225.614,727.385 225.723,728.016 225.939,728.594C226.156,729.175 226.472,729.68 226.888,730.114C227.302,730.546 227.796,730.885 228.372,731.134C228.948,731.382 229.594,731.507 230.311,731.507C231.027,731.507 231.672,731.382 232.249,731.134C232.824,730.885 233.318,730.546 233.734,730.114C234.148,729.68 234.465,729.175 234.681,728.594C234.898,728.016 235.007,727.385 235.007,726.704C235.007,726.024 234.898,725.393 234.681,724.814C234.465,724.234 234.148,723.728 233.734,723.295C233.318,722.863 232.824,722.524 232.249,722.275C231.672,722.027 231.027,721.902 230.311,721.902C229.594,721.902 228.948,722.027 228.372,722.275C227.796,722.524 227.302,722.863 226.888,723.295C226.472,723.728 226.156,724.234 225.939,724.814C225.723,725.393 225.614,726.024 225.614,726.704ZM223.238,726.704C223.238,725.693 223.416,724.772 223.775,723.944C224.133,723.116 224.624,722.404 225.247,721.805C225.869,721.207 226.613,720.743 227.482,720.412C228.349,720.079 229.292,719.915 230.311,719.915C231.329,719.915 232.273,720.079 233.14,720.412C234.007,720.743 234.753,721.207 235.375,721.805C235.997,722.404 236.487,723.116 236.846,723.944C237.204,724.772 237.384,725.693 237.384,726.704C237.384,727.717 237.204,728.635 236.846,729.464C236.487,730.292 235.997,731.005 235.375,731.603C234.753,732.202 234.007,732.666 233.14,732.997C232.273,733.328 231.329,733.494 230.311,733.494C229.292,733.494 228.349,733.328 227.482,732.997C226.613,732.666 225.869,732.202 225.247,731.603C224.624,731.005 224.133,730.292 223.775,729.464C223.416,728.635 223.238,727.717 223.238,726.704Z"/>
            </clipPath>
            <g clip-path="url(#_clip13)">
                <rect x="218.238" y="714.915" width="24.146" height="23.579" style="fill:rgb(61,71,97);"/>
            </g>
        </g>
        <g transform="matrix(1,0,0,1,0,-656.409)">
            <clipPath id="_clip14">
                <path d="M242.108,726.704C242.108,727.385 242.217,728.016 242.433,728.594C242.65,729.175 242.966,729.68 243.382,730.114C243.796,730.546 244.29,730.885 244.866,731.134C245.442,731.382 246.088,731.507 246.805,731.507C247.521,731.507 248.166,731.382 248.743,731.134C249.318,730.885 249.812,730.546 250.228,730.114C250.643,729.68 250.959,729.175 251.175,728.594C251.392,728.016 251.501,727.385 251.501,726.704C251.501,726.024 251.392,725.393 251.175,724.814C250.959,724.234 250.643,723.728 250.228,723.295C249.812,722.863 249.318,722.524 248.743,722.275C248.166,722.027 247.521,721.902 246.805,721.902C246.088,721.902 245.442,722.027 244.866,722.275C244.29,722.524 243.796,722.863 243.382,723.295C242.966,723.728 242.65,724.234 242.433,724.814C242.217,725.393 242.108,726.024 242.108,726.704ZM239.732,726.704C239.732,725.693 239.91,724.772 240.269,723.944C240.627,723.116 241.118,722.404 241.741,721.805C242.363,721.207 243.107,720.743 243.976,720.412C244.843,720.079 245.786,719.915 246.805,719.915C247.823,719.915 248.767,720.079 249.634,720.412C250.501,720.743 251.246,721.207 251.869,721.805C252.491,722.404 252.981,723.116 253.34,723.944C253.698,724.772 253.878,725.693 253.878,726.704C253.878,727.717 253.698,728.635 253.34,729.464C252.981,730.292 252.491,731.005 251.869,731.603C251.246,732.202 250.501,732.666 249.634,732.997C248.767,733.328 247.823,733.494 246.805,733.494C245.786,733.494 244.843,733.328 243.976,732.997C243.107,732.666 242.363,732.202 241.741,731.603C241.118,731.005 240.627,730.292 240.269,729.464C239.91,728.635 239.732,727.717 239.732,726.704Z"/>
            </clipPath>
            <g clip-path="url(#_clip14)">
                <rect x="234.732" y="714.915" width="24.146" height="23.579" style="fill:rgb(61,71,97);"/>
            </g>
        </g>
        <g transform="matrix(1,0,0,1,0,-664.357)">
            <clipPath id="_clip15">
                <path d="M256.99,720.246L259.197,720.246L259.197,733.879L265.223,728.195L268.363,728.195L261.969,734.072L269.014,741.111L265.76,741.111L259.197,734.321L259.197,741.111L256.99,741.111L256.99,720.246Z"/>
            </clipPath>
            <g clip-path="url(#_clip15)">
                <rect x="251.99" y="715.246" width="22.024" height="30.866" style="fill:rgb(61,71,97);"/>
            </g>
        </g>
        <g transform="matrix(1,0,0,1,0,-656.409)">
            <clipPath id="_clip16">
                <path d="M271.107,729.768C271.541,730.302 272.016,730.726 272.535,731.038C273.054,731.351 273.71,731.507 274.502,731.507C274.841,731.507 275.185,731.471 275.535,731.397C275.883,731.324 276.199,731.204 276.482,731.038C276.765,730.872 276.991,730.666 277.161,730.418C277.331,730.169 277.416,729.87 277.416,729.52C277.416,729.171 277.335,728.885 277.176,728.664C277.015,728.444 276.802,728.255 276.539,728.098C276.274,727.943 275.973,727.818 275.633,727.726C275.294,727.635 274.945,727.551 274.587,727.478C273.964,727.349 273.37,727.202 272.804,727.036C272.238,726.87 271.744,726.654 271.318,726.388C270.894,726.122 270.555,725.776 270.3,725.352C270.045,724.93 269.919,724.386 269.919,723.724C269.919,723.099 270.06,722.547 270.343,722.068C270.626,721.59 271.004,721.194 271.475,720.881C271.946,720.569 272.473,720.329 273.059,720.164C273.643,719.998 274.247,719.915 274.87,719.915C275.812,719.915 276.685,720.099 277.487,720.467C278.288,720.835 278.915,721.433 279.368,722.261L277.529,723.448C277.246,722.988 276.873,722.615 276.411,722.331C275.95,722.045 275.388,721.902 274.728,721.902C274.426,721.902 274.119,721.94 273.808,722.013C273.497,722.087 273.219,722.196 272.974,722.344C272.728,722.492 272.525,722.68 272.365,722.909C272.205,723.141 272.125,723.402 272.125,723.696C272.125,723.972 272.214,724.206 272.393,724.4C272.573,724.594 272.819,724.763 273.13,724.911C273.44,725.058 273.798,725.187 274.205,725.297C274.61,725.408 275.03,725.5 275.464,725.573C276.048,725.684 276.604,725.826 277.133,726C277.661,726.177 278.123,726.411 278.519,726.705C278.915,726.999 279.226,727.367 279.453,727.809C279.679,728.25 279.792,728.794 279.792,729.437C279.792,730.174 279.641,730.799 279.34,731.314C279.037,731.83 278.637,732.248 278.137,732.57C277.637,732.893 277.071,733.127 276.439,733.274C275.807,733.421 275.161,733.494 274.502,733.494C273.37,733.494 272.393,733.324 271.573,732.984C270.753,732.644 270.012,732.014 269.353,731.093L271.107,729.768Z"/>
            </clipPath>
            <g clip-path="url(#_clip16)">
                <rect x="264.353" y="714.915" width="20.44" height="23.579" style="fill:rgb(61,71,97);"/>
            </g>
        </g>
    </g>
</svg>
