<?xml version="1.0" encoding="UTF-8" standalone="no"?>
<!DOCTYPE svg PUBLIC "-//W3C//DTD SVG 1.1//EN" "http://www.w3.org/Graphics/SVG/1.1/DTD/svg11.dtd">
<svg width="100%" height="100%" viewBox="0 0 22 17" version="1.1" xmlns="http://www.w3.org/2000/svg" xmlns:xlink="http://www.w3.org/1999/xlink" xml:space="preserve" xmlns:serif="http://www.serif.com/" style="fill-rule:evenodd;clip-rule:evenodd;stroke-linejoin:round;stroke-miterlimit:1.41421;">
    <g transform="matrix(1,0,0,1,-221,-134)">
        <path d="M241.5,134L222.5,134C221.672,134 221,134.672 221,135.5L221,149.5C221,150.328 221.672,151 222.5,151L241.5,151C242.328,151 243,150.328 243,149.5L243,135.5C243,134.672 242.328,134 241.5,134ZM241.5,148.44L237.53,144.47C237.234,144.195 236.774,144.203 236.488,144.488C236.203,144.774 236.195,145.235 236.47,145.53L240.44,149.5L223.56,149.5L227.53,145.53C227.805,145.235 227.797,144.774 227.512,144.488C227.226,144.203 226.765,144.195 226.47,144.47L222.5,148.44L222.5,138.815L231.5,145.6C231.767,145.8 232.133,145.8 232.4,145.6L241.49,138.81L241.5,148.44ZM241.5,135.5L241.5,136.94L231.965,144.065L222.5,136.94L222.5,135.5L241.5,135.5Z" style="fill:rgb(239,135,121);"/>
    </g>
</svg>
