<?xml version="1.0" encoding="UTF-8" standalone="no"?>
<!DOCTYPE svg PUBLIC "-//W3C//DTD SVG 1.1//EN" "http://www.w3.org/Graphics/SVG/1.1/DTD/svg11.dtd">
<svg width="100%" height="100%" viewBox="0 0 24 24" version="1.1" xmlns="http://www.w3.org/2000/svg" xmlns:xlink="http://www.w3.org/1999/xlink" xml:space="preserve" xmlns:serif="http://www.serif.com/" style="fill-rule:evenodd;clip-rule:evenodd;stroke-linejoin:round;stroke-miterlimit:1.41421;">
    <g transform="matrix(1,0,0,1,-52.0897,-641.06)">
        <path d="M73.629,658.33C73.643,657.753 73.242,657.281 72.707,657.205C71.586,657.057 70.485,656.783 69.423,656.387C69.028,656.238 68.581,656.333 68.285,656.626L66.909,658.002C66.564,658.347 66.031,658.419 65.607,658.178C62.726,656.539 60.34,654.153 58.701,651.271C58.46,650.848 58.532,650.315 58.877,649.97L60.249,648.598C60.546,648.298 60.641,647.851 60.491,647.453C60.096,646.394 59.822,645.293 59.675,644.182C59.599,643.643 59.136,643.245 58.581,643.25L55.332,643.25C55.028,643.25 54.738,643.379 54.533,643.603C54.328,643.828 54.227,644.128 54.253,644.414C54.59,647.593 55.672,650.649 57.416,653.34C58.994,655.823 61.099,657.929 63.591,659.512C66.262,661.244 69.302,662.326 72.448,662.668C72.752,662.695 73.053,662.593 73.278,662.387C73.503,662.181 73.63,661.89 73.629,661.58L73.629,658.33ZM65.377,656.47L66.678,656.294C66.44,656.159 66.206,656.018 65.976,655.871L65.377,656.47ZM75.795,661.576C75.799,662.491 75.417,663.365 74.743,663.984C74.068,664.602 73.164,664.908 72.233,664.824C68.731,664.443 65.367,663.247 62.42,661.335C59.669,659.587 57.336,657.254 55.592,654.51C53.669,651.541 52.472,648.161 52.097,644.626C52.014,643.717 52.318,642.816 52.933,642.142C53.548,641.468 54.418,641.084 55.331,641.083L58.571,641.083C60.202,641.067 61.592,642.263 61.822,643.889C61.949,644.848 62.183,645.789 62.52,646.693C62.967,647.881 62.681,649.22 61.785,650.126L61.008,650.903C62.282,652.901 63.978,654.597 65.976,655.871L66.757,655.09C67.659,654.198 68.998,653.912 70.183,654.358C71.09,654.696 72.031,654.93 73,655.058C74.629,655.288 75.829,656.699 75.795,658.342L75.795,661.576Z" style="fill:rgb(239,135,121);fill-rule:nonzero;"/>
    </g>
</svg>
