<?xml version="1.0" encoding="UTF-8" standalone="no"?>
<!DOCTYPE svg PUBLIC "-//W3C//DTD SVG 1.1//EN" "http://www.w3.org/Graphics/SVG/1.1/DTD/svg11.dtd">
<svg width="100%" height="100%" viewBox="0 0 22 22" version="1.1" xmlns="http://www.w3.org/2000/svg" xmlns:xlink="http://www.w3.org/1999/xlink" xml:space="preserve" xmlns:serif="http://www.serif.com/" style="fill-rule:evenodd;clip-rule:evenodd;stroke-linejoin:round;stroke-miterlimit:1.41421;">
    <g transform="matrix(1,0,0,1,-164,-36)">
        <clipPath id="_clip1">
            <path d="M186,40.131C185.191,40.492 184.32,40.736 183.407,40.846C184.34,40.283 185.055,39.393 185.392,38.332C184.521,38.853 183.554,39.231 182.526,39.435C181.702,38.552 180.53,38 179.232,38C176.739,38 174.718,40.034 174.718,42.544C174.718,42.9 174.758,43.247 174.835,43.58C171.083,43.39 167.758,41.581 165.532,38.831C165.143,39.503 164.921,40.283 164.921,41.116C164.921,42.692 165.717,44.084 166.928,44.898C166.188,44.875 165.493,44.67 164.884,44.33C164.883,44.349 164.883,44.368 164.883,44.387C164.883,46.589 166.439,48.426 168.504,48.843C168.126,48.947 167.727,49.002 167.315,49.002C167.024,49.002 166.742,48.974 166.466,48.921C167.04,50.726 168.707,52.04 170.683,52.077C169.138,53.296 167.191,54.022 165.077,54.022C164.712,54.022 164.353,54 164,53.959C165.997,55.248 168.37,56 170.919,56C179.221,56 183.761,49.075 183.761,43.071C183.761,42.874 183.757,42.678 183.748,42.483C184.63,41.842 185.395,41.042 186,40.131Z"/>
        </clipPath>
        <g clip-path="url(#_clip1)">
            <rect x="159" y="33" width="32" height="28" style="fill:white;"/>
        </g>
    </g>
</svg>
